<svg width="205" height="205" viewBox="0 0 205 205" fill="none" xmlns="http://www.w3.org/2000/svg">
<path fill-rule="evenodd" clip-rule="evenodd" d="M205 47.8418V13.5982C204.998 13.0849 204.862 12.5809 204.605 12.1365C204.348 11.6921 203.98 11.3227 203.535 11.0652C203.091 10.8078 202.588 10.6711 202.074 10.6689C201.561 10.6668 201.056 10.7991 200.61 11.0528L178.06 23.9336C177.162 24.4481 176.415 25.1906 175.896 26.086C175.377 26.9815 175.104 27.9981 175.104 29.033V63.2766C175.104 65.5316 177.539 66.9495 179.495 65.822L202.045 52.9411C202.944 52.426 203.691 51.6821 204.21 50.785C204.729 49.888 205.002 48.8782 205 47.8418ZM4.39896 11.0613L69.6829 48.4995C70.5722 49.0089 71.5793 49.277 72.6042 49.277C73.6291 49.277 74.6361 49.0089 75.5254 48.4995L140.809 11.0613C141.256 10.8055 141.762 10.6715 142.276 10.6726C142.791 10.6737 143.296 10.8099 143.742 11.0677C144.187 11.3254 144.557 11.6956 144.814 12.1412C145.072 12.5868 145.208 13.0922 145.208 13.6068V116.363C145.208 118.37 144.183 120.232 142.484 121.317L102.765 146.541L129.329 162.189C131.209 163.299 133.558 163.274 135.42 162.112L174.797 137.529C175.219 137.264 175.566 136.896 175.807 136.46C176.047 136.024 176.173 135.533 176.172 135.035V100.142C176.172 97.9728 177.368 95.9911 179.264 94.9661L200.678 83.4691C201.125 83.2302 201.627 83.1112 202.134 83.1237C202.641 83.1362 203.136 83.2797 203.571 83.5402C204.006 83.8008 204.367 84.1695 204.617 84.6106C204.867 85.0517 204.999 85.55 205 86.0572V150.384C205 152.469 203.89 154.399 202.096 155.45L135.18 194.673C134.258 195.213 133.206 195.491 132.137 195.477C131.069 195.464 130.024 195.159 129.116 194.596L78.2673 163.154C77.841 162.89 77.4893 162.522 77.2456 162.084C77.0019 161.646 76.8743 161.153 76.875 160.652V129.697C76.875 128.714 77.3619 127.8 78.1819 127.254L112.69 104.242C113.496 103.707 114.156 102.981 114.614 102.128C115.071 101.276 115.311 100.324 115.313 99.3565V61.8586C115.312 61.6512 115.257 61.4476 115.152 61.2687C115.047 61.0897 114.897 60.9418 114.716 60.8401C114.535 60.7385 114.331 60.6866 114.123 60.69C113.916 60.6934 113.713 60.7518 113.536 60.8593L75.6108 83.6143C74.702 84.16 73.6624 84.4497 72.6023 84.4527C71.5421 84.4558 70.5009 84.1719 69.589 83.6313L31.1344 60.8422C30.9559 60.7371 30.7529 60.6809 30.5459 60.6793C30.3388 60.6776 30.1349 60.7306 29.9548 60.8328C29.7747 60.9349 29.6247 61.0828 29.5198 61.2614C29.415 61.44 29.3591 61.643 29.3577 61.8501V129.611C29.3569 130.13 29.2187 130.639 28.9573 131.087C28.6958 131.535 28.3204 131.906 27.8693 132.162C27.4181 132.418 26.9072 132.55 26.3885 132.544C25.8698 132.539 25.3617 132.396 24.916 132.131L4.27083 119.746C1.62292 118.157 0 115.287 0 112.195V13.6068C0 11.3518 2.44292 9.93385 4.39896 11.0613Z" fill="#0073E6"/>
</svg>
