<svg xmlns="http://www.w3.org/2000/svg" fill="none" viewBox="0 21.8704402 180.9335438596491 106.131872" style="max-height: 500px" width="180.9335438596491" height="106.131872">
<path fill="#1E502D" d="M3.63281 74.6562V67.8203C8.0599 67.8203 11.1458 66.9219 12.8906 65.125C14.6615 63.3021 15.5469 60.3464 15.5469 56.2578V46.2969C15.5469 41.8958 16.0938 38.2891 17.1875 35.4766C18.3073 32.6641 19.9349 30.4766 22.0703 28.9141C24.2057 27.3516 26.8099 26.2708 29.8828 25.6719C32.9557 25.0469 36.4453 24.7344 40.3516 24.7344V35.5937C37.2786 35.5937 34.9219 36.0234 33.2812 36.8828C31.6406 37.7161 30.5078 39.0052 29.8828 40.75C29.2839 42.4948 28.9844 44.7214 28.9844 47.4297V60.2422C28.9844 62.2474 28.6458 64.1224 27.9688 65.8672C27.2917 67.612 26.0547 69.1484 24.2578 70.4766C22.4609 71.7786 19.8958 72.8073 16.5625 73.5625C13.2552 74.2917 8.94531 74.6562 3.63281 74.6562ZM40.3516 123.992C36.4453 123.992 32.9557 123.68 29.8828 123.055C26.8099 122.456 24.2057 121.375 22.0703 119.813C19.9349 118.25 18.3073 116.063 17.1875 113.25C16.0938 110.438 15.5469 106.831 15.5469 102.43V92.5078C15.5469 88.4193 14.6615 85.4766 12.8906 83.6797C11.1458 81.8568 8.0599 80.9453 3.63281 80.9453V74.1094C8.94531 74.1094 13.2552 74.487 16.5625 75.2422C19.8958 75.9714 22.4609 77 24.2578 78.3281C26.0547 79.6302 27.2917 81.1536 27.9688 82.8984C28.6458 84.6432 28.9844 86.5052 28.9844 88.4844V101.297C28.9844 104.005 29.2839 106.232 29.8828 107.977C30.5078 109.721 31.6406 111.023 33.2812 111.883C34.9219 112.742 37.2786 113.172 40.3516 113.172V123.992ZM3.63281 80.9453V67.8203H16.0156V80.9453H3.63281ZM177.995 74.1094V80.9453C173.568 80.9453 170.469 81.8568 168.698 83.6797C166.953 85.4766 166.081 88.4193 166.081 92.5078V102.43C166.081 106.831 165.521 110.438 164.401 113.25C163.307 116.063 161.693 118.25 159.557 119.813C157.422 121.375 154.818 122.456 151.745 123.055C148.672 123.68 145.182 123.992 141.276 123.992V113.172C144.349 113.172 146.706 112.742 148.346 111.883C149.987 111.023 151.107 109.721 151.706 107.977C152.331 106.232 152.643 104.005 152.643 101.297V88.4844C152.643 86.5052 152.982 84.6432 153.659 82.8984C154.336 81.1536 155.573 79.6302 157.37 78.3281C159.167 77 161.719 75.9714 165.026 75.2422C168.36 74.487 172.682 74.1094 177.995 74.1094ZM141.276 24.7344C145.182 24.7344 148.672 25.0469 151.745 25.6719C154.818 26.2708 157.422 27.3516 159.557 28.9141C161.693 30.4766 163.307 32.6641 164.401 35.4766C165.521 38.2891 166.081 41.8958 166.081 46.2969V56.2578C166.081 60.3464 166.953 63.3021 168.698 65.125C170.469 66.9219 173.568 67.8203 177.995 67.8203V74.6562C172.682 74.6562 168.36 74.2917 165.026 73.5625C161.719 72.8073 159.167 71.7786 157.37 70.4766C155.573 69.1484 154.336 67.612 153.659 65.8672C152.982 64.1224 152.643 62.2474 152.643 60.2422V47.4297C152.643 44.7214 152.331 42.4948 151.706 40.75C151.107 39.0052 149.987 37.7161 148.346 36.8828C146.706 36.0234 144.349 35.5937 141.276 35.5937V24.7344ZM177.995 67.8203V80.9453H165.612V67.8203H177.995Z"/>
<line stroke-width="3.5" stroke="#87CB28" y2="65.683" x2="68.8476" y1="86.683" x1="44.8476"/>
<line stroke-width="3.5" stroke="#87CB28" y2="65.3334" x2="81.8666" y1="82.3334" x1="101.867"/>
<line stroke-width="3.5" stroke="#87CB28" y2="63.7023" x2="135.826" y1="82.7023" x1="114.826"/>
<circle stroke-width="4" stroke="#87CB28" r="7" cy="90" cx="41"/>
<circle stroke-width="4" stroke="#87CB28" r="7" cy="63" cx="75"/>
<circle stroke-width="4" stroke="#87CB28" r="7" cy="85" cx="108"/>
<circle stroke-width="4" stroke="#87CB28" r="7" cy="59" cx="141"/>
</svg>